<svg  viewBox="0 0 26 26" xmlns="http://www.w3.org/2000/svg">
<path d="M21.6 21.52C20.64 22.16 19.5413 22.6827 18.304 23.088C17.0667 23.472 15.712 23.664 14.24 23.664C12.4693 23.664 10.944 23.376 9.664 22.8C8.384 22.224 7.31733 21.4453 6.464 20.464C5.632 19.4827 5.01333 18.352 4.608 17.072C4.20267 15.7707 4 14.3947 4 12.944C4 11.4293 4.224 10.0107 4.672 8.688C5.12 7.36533 5.78133 6.21333 6.656 5.232C7.552 4.22933 8.66133 3.44 9.984 2.864C11.3067 2.288 12.8533 2 14.624 2C15.8187 2 17.0027 2.128 18.176 2.384C19.3493 2.61867 20.3947 2.94933 21.312 3.376L20.288 6.704C19.5627 6.27733 18.72 5.91467 17.76 5.616C16.8 5.296 15.712 5.136 14.496 5.136C13.28 5.136 12.2453 5.31733 11.392 5.68C10.56 6.02133 9.888 6.52267 9.376 7.184C8.864 7.84533 8.49067 8.64533 8.256 9.584C8.02133 10.5013 7.904 11.5467 7.904 12.72C7.904 17.9253 10.112 20.528 14.528 20.528C15.3173 20.528 15.9467 20.464 16.416 20.336C16.8853 20.208 17.3867 20.0587 17.92 19.888V14.576H21.6V21.52Z"/>
</svg>
